<svg width="36" height="36" viewBox="0 0 36 36" fill="none" xmlns="http://www.w3.org/2000/svg">
<path d="M24 31.5V28.5C24 26.9087 23.3679 25.3826 22.2426 24.2574C21.1174 23.1321 19.5913 22.5 18 22.5H9C7.4087 22.5 5.88258 23.1321 4.75736 24.2574C3.63214 25.3826 3 26.9087 3 28.5V31.5" stroke="#E21F26" stroke-width="1.8" stroke-linecap="round" stroke-linejoin="round"/>
<path d="M13.5 16.5C16.8137 16.5 19.5 13.8137 19.5 10.5C19.5 7.18629 16.8137 4.5 13.5 4.5C10.1863 4.5 7.5 7.18629 7.5 10.5C7.5 13.8137 10.1863 16.5 13.5 16.5Z" stroke="#E21F26" stroke-width="1.8" stroke-linecap="round" stroke-linejoin="round"/>
<path d="M33 31.5001V28.5001C32.999 27.1707 32.5565 25.8792 31.742 24.8285C30.9276 23.7779 29.7872 23.0274 28.5 22.6951" stroke="#E21F26" stroke-width="1.8" stroke-linecap="round" stroke-linejoin="round"/>
<path d="M24 4.69507C25.2906 5.02552 26.4346 5.77612 27.2515 6.82853C28.0684 7.88095 28.5118 9.17531 28.5118 10.5076C28.5118 11.8398 28.0684 13.1342 27.2515 14.1866C26.4346 15.239 25.2906 15.9896 24 16.3201" stroke="#E21F26" stroke-width="1.8" stroke-linecap="round" stroke-linejoin="round"/>
</svg>
