<svg width="34" height="34" viewBox="0 0 34 34" fill="none" xmlns="http://www.w3.org/2000/svg">
<g clip-path="url(#clip0_143_128)">
<path d="M26.9167 23.9416C28.6381 23.5921 30.1683 22.6154 31.2101 21.2011C32.252 19.7868 32.7311 18.0358 32.5546 16.2881C32.378 14.5404 31.5584 12.9206 30.2548 11.7433C28.9512 10.5659 27.2566 9.91488 25.5 9.91664H23.715C23.2456 8.09951 22.3324 6.42738 21.0572 5.05037C19.782 3.67337 18.1848 2.63459 16.409 2.02732C14.6332 1.42004 12.7344 1.26326 10.883 1.57107C9.03166 1.87888 7.28572 2.64163 5.80195 3.79085C4.31819 4.94006 3.14304 6.43977 2.38202 8.15532C1.621 9.87087 1.29792 11.7486 1.4418 13.6198C1.58568 15.491 2.19202 17.2973 3.20636 18.8763C4.2207 20.4553 5.61131 21.7578 7.25332 22.6666M18.4167 15.5833L12.75 24.0833H21.25L15.5833 32.5833" stroke="#E21F26" stroke-width="3" stroke-linecap="round" stroke-linejoin="round"/>
</g>
<defs>
<clipPath id="clip0_143_128">
<rect width="34" height="34" fill="white"/>
</clipPath>
</defs>
</svg>
