<svg width="52" height="41" viewBox="0 0 52 41" fill="none" xmlns="http://www.w3.org/2000/svg">
<path d="M27.1705 22.7673C28.8595 22.6564 30.3186 23.9402 30.4308 25.6359C30.543 27.3316 29.2658 28.7979 27.5771 28.9123C25.886 29.0269 24.4229 27.7423 24.3106 26.0441C24.1982 24.346 25.4791 22.8784 27.1705 22.7673Z" fill="#E21F26"/>
<path d="M24.1667 17.1818C25.3404 17.3937 24.589 18.1355 24.2977 18.7682C23.7109 20.0426 22.9153 21.1749 22.1816 22.3592C22.5877 22.4562 22.8502 22.5914 23.205 22.8143C23.5474 23.0294 24.1948 23.2199 24.022 23.7384C23.97 23.8923 23.8574 24.018 23.7105 24.0862C23.2001 24.3179 22.1901 23.3461 21.6332 23.124C21.496 23.2944 21.3579 23.5604 21.2181 23.7282C20.8774 24.1367 20.5548 24.5663 20.2223 24.9789C18.8286 26.7079 17.3325 28.0449 15.6746 29.5015C16.2292 29.3432 16.7932 29.1674 17.3579 29.0512C18.1893 28.88 21.1741 28.4533 21.8705 28.7619C21.9979 28.8184 22.0367 28.9742 22.0843 29.0959C22.2133 29.8385 21.1428 29.7422 20.6684 29.7351C19.0827 29.7112 17.6384 30.0424 16.1209 30.4622C15.8691 30.5318 15.0731 30.8158 14.8502 30.6182C14.6081 30.3956 14.3811 29.1829 14.6344 28.9641C15.2071 28.4694 15.8672 27.9446 16.4414 27.4318C18.0319 26.0116 19.3153 24.4085 20.6337 22.7461C20.1312 22.3195 19.1239 21.9206 20.3014 21.3415C20.792 21.473 20.8894 21.5173 21.3155 21.7877C21.3409 21.7187 21.413 21.5393 21.4539 21.485C22.0556 20.6877 22.5326 19.8155 23.0273 18.9489C23.3438 18.3944 23.5331 17.4635 24.1667 17.1818Z" fill="black" fill-opacity="0.988235"/>
<path d="M25.8105 0.799813C25.8832 0.793735 25.9572 0.790455 26.03 0.792457C26.1375 0.795412 26.2417 0.837177 26.3268 0.902613C26.7052 1.19386 27.0209 1.5942 27.3534 1.93633C27.835 2.43187 28.3349 2.91092 28.8111 3.41145C28.9641 3.57227 29.1323 3.73579 29.1228 3.97476C29.1172 4.11336 29.0582 4.25186 28.9538 4.34443C28.8583 4.42899 28.7338 4.46587 28.6076 4.45486C28.1463 4.41454 26.8911 2.98033 26.5452 2.57841C26.6018 3.13136 26.6085 7.48317 26.4893 7.78959C26.4239 7.95744 26.2467 8.02238 26.0961 8.09137C25.8249 8.12063 25.6196 7.95419 25.4249 7.78855C25.4185 6.09974 25.3754 4.19897 25.4237 2.52138C25.0435 3.12414 24.3839 3.62827 23.9135 4.17178C23.3611 4.81 22.4815 4.3122 22.9772 3.61165C23.1894 3.31175 23.7199 2.81998 23.9998 2.54803C24.581 1.98346 25.1807 1.30046 25.8105 0.799813Z" fill="#E21F26"/>
<path d="M46.31 22.1923C46.852 22.2909 47.8549 23.5646 48.2943 23.9592C48.6385 24.2682 49.0289 24.6853 49.3646 25.0122C49.6047 25.2476 49.5014 25.6639 49.2925 25.8814C48.601 26.602 47.8712 27.2925 47.1638 27.9986C47.0186 28.1435 46.8671 28.3614 46.71 28.4717C46.07 28.9209 45.3725 28.2928 46.0113 27.6828C46.3826 27.3315 46.7702 26.8073 47.2061 26.5324C47.3923 26.2915 47.4852 26.1696 47.7081 25.9653C46.2702 25.9249 44.8003 25.984 43.3603 25.9613C43.1721 25.9461 42.8965 25.9607 42.7697 25.7979C42.5301 25.491 42.6529 24.9317 43.0987 24.9105C44.1144 24.8622 45.1472 24.8906 46.1649 24.8789C46.6845 24.873 47.2172 24.8696 47.7309 24.9277C47.2547 24.3426 44.7508 22.4852 46.31 22.1923Z" fill="black" fill-opacity="0.988235"/>
<path d="M28.5828 30.3573C29.0403 30.273 29.9104 30.9621 30.2442 31.2274C30.4911 31.4238 30.9119 31.5492 31.1837 31.7428C32.9507 33.0013 34.7142 34.4617 35.9284 36.2819C35.7596 36.5453 35.484 37.0914 35.0291 36.7476C34.7147 36.5101 34.4182 35.9846 34.1224 35.6992C33.857 35.4432 33.5868 35.1631 33.3366 34.8896C33.2006 34.7021 33.0136 34.5851 32.8439 34.422C32.1469 33.7522 31.3717 33.1788 30.5811 32.6258C30.1182 32.302 29.8763 32.2545 29.4233 31.8437C29.3327 32.0036 27.8287 34.2435 27.772 34.294C27.6494 34.4032 27.4998 34.429 27.3407 34.4142C27.2076 34.4018 27.0748 34.3554 26.9927 34.2426C26.92 34.1427 26.9091 33.9982 26.9234 33.8792C26.9874 33.346 28.0684 31.8111 28.5023 31.4658C28.1809 31.2922 27.921 31.0613 28.1084 30.6461C28.199 30.4453 28.3868 30.4148 28.5828 30.3573Z" fill="#FF0404" fill-opacity="0.984314"/>
<path d="M8.20872 17.3025C8.38051 17.2954 8.57886 17.2986 8.72186 17.4022C9.27787 17.8053 8.68151 18.2199 8.40635 18.5084C7.92827 19.0097 7.39168 19.4404 6.98138 19.9932C7.91722 19.9438 8.88397 19.966 9.82304 19.9662C10.7481 19.9665 11.3164 19.8548 10.9713 20.9661C10.3796 21.0853 7.67532 21.0158 7.03354 20.9824C7.3652 21.2607 7.62404 21.5719 7.93393 21.874C8.17064 22.1051 9.03171 22.8235 8.95383 23.188C8.8663 23.5974 8.47774 23.8956 8.09248 23.5219C7.15321 22.6153 6.22455 21.6742 5.31754 20.74C5.11688 20.5332 5.36727 20.0154 5.53834 19.8734C6.22204 19.3062 7.50764 17.6675 8.20872 17.3025Z" fill="#E21F26"/>
<path d="M26.009 9.21387C26.363 9.31953 26.3897 9.34099 26.5844 9.6561C26.6386 10.2797 26.7977 10.8709 26.0728 11.08C25.2415 10.9794 25.2856 10.2072 25.5334 9.54587C25.6071 9.34936 25.8195 9.27252 26.009 9.21387Z" fill="#FF0404" fill-opacity="0.984314"/>
<path d="M30.9514 28.6706C32.0296 28.6416 31.745 29.5461 31.0929 29.8795C30.9344 29.9605 30.8001 30.1267 30.6933 30.2706C30.4496 30.255 30.3618 30.1452 30.1918 29.9852C29.6418 29.4677 30.5493 28.8928 30.9514 28.6706Z" fill="black" fill-opacity="0.980392"/>
<path d="M38.0994 25.2062C38.5325 25.1489 39.3644 25.1941 38.9915 25.9684C38.8725 26.2156 38.4846 26.2519 38.2218 26.2929C38.1609 26.3146 38.0989 26.3335 38.0362 26.3497C37.4902 26.4897 37.1028 26.0783 37.3996 25.5623C37.55 25.3009 37.8259 25.264 38.0994 25.2062Z" fill="#FF0404" fill-opacity="0.984314"/>
<path d="M25.1508 14.6539C26.283 14.6969 25.7737 15.9042 25.2365 16.3448C24.229 16.333 24.3803 15.6992 24.7656 15.0015C24.894 14.7691 24.8957 14.7649 25.1508 14.6539Z" fill="black" fill-opacity="0.980392"/>
<path d="M10.5324 31.7213C10.9424 31.6948 11.3514 31.9078 11.2184 32.3935C11.1277 32.7247 10.56 32.9927 10.2586 33.1348C9.12418 33.2645 9.51063 32.0952 10.5324 31.7213Z" fill="#FF0404" fill-opacity="0.984314"/>
<path d="M33.2539 27.0274C34.3724 26.9539 33.8389 28.254 32.8422 28.5064C31.6689 28.5332 32.3731 27.3266 33.2539 27.0274Z" fill="#FF0404" fill-opacity="0.984314"/>
<path d="M14.9301 20.0709C15.3977 20.0863 16.5149 20.0581 16.2771 20.8627C16.2209 21.053 16.0188 21.1406 15.8543 21.2206C15.63 21.2055 15.117 21.1895 14.9274 21.1313C14.3435 20.952 14.3815 20.3064 14.9301 20.0709Z" fill="#FF0404" fill-opacity="0.984314"/>
<path d="M12.9383 30.4688C13.368 30.4304 13.818 30.5903 13.7256 31.1023C13.6707 31.4066 13.0455 31.6065 12.7898 31.7214C12.297 31.8695 11.8784 31.6284 11.9829 31.0985C12.0429 30.7945 12.6882 30.5807 12.9383 30.4688Z" fill="black" fill-opacity="0.980392"/>
<path d="M17.6101 20.5093C18.2606 20.4996 18.7189 20.572 18.9914 21.2106C18.9114 21.3936 18.8083 21.7295 18.6519 21.8028C18.4906 21.8088 18.3293 21.7939 18.1718 21.7584C17.8484 21.6867 17.4957 21.5304 17.3039 21.2433C17.1261 20.9773 17.3649 20.633 17.6101 20.5093Z" fill="#FF0404" fill-opacity="0.984314"/>
<path d="M25.8386 12.0953C26.0273 12.1235 26.2586 12.2594 26.301 12.45C26.4246 13.0048 26.3617 13.6926 25.7761 13.9026C24.9451 13.7491 25.1244 13.0554 25.3664 12.4082C25.4417 12.2067 25.6455 12.1571 25.8386 12.0953Z" fill="black" fill-opacity="0.988235"/>
<path d="M35.8157 25.8734C35.9854 25.8763 36.24 25.9713 36.3113 26.14C36.6425 26.9245 35.7531 26.9567 35.2961 27.1675L35.2593 27.1847C34.7745 27.0767 34.287 26.6855 34.8592 26.2C34.9986 26.0817 35.6132 25.9289 35.8157 25.8734Z" fill="black" fill-opacity="0.980392"/>
<path d="M23.3707 28.9102C23.8318 28.8564 24.3373 28.9882 24.7067 29.2772C24.8558 29.7292 24.8208 29.9178 24.3776 30.1224L24.2741 30.1671C23.9659 30.1039 23.6212 30.0103 23.3329 29.8852C23.123 29.7941 23.1201 29.7153 23.0391 29.4903C23.1195 29.2119 23.1297 29.0627 23.3707 28.9102Z" fill="black" fill-opacity="0.980392"/>
<path d="M26.6224 34.9612C27.5299 34.9411 27.2431 36.2993 26.5576 36.5222C26.1302 36.5007 26.0533 36.4016 25.9033 36.016C26.035 35.5368 26.0783 35.076 26.6224 34.9612Z" fill="#FF0404" fill-opacity="0.984314"/>
<path d="M40.3366 24.9954C40.8538 24.9692 41.7846 24.8433 41.5728 25.6866C41.527 25.8686 41.3754 25.935 41.2239 26.019C41.0098 26.0473 40.6202 26.0923 40.4156 26.0515C39.8836 25.9456 39.9259 25.2476 40.3366 24.9954Z" fill="#FF0404" fill-opacity="0.984314"/>
<path d="M12.3644 19.9983C12.7977 19.9661 13.4675 19.919 13.5952 20.4635C13.6685 20.7759 13.3505 20.9849 13.0909 21.0424C11.9234 21.2805 11.6662 20.2516 12.3644 19.9983Z" fill="black" fill-opacity="0.980392"/>
<path d="M26.0909 29.5817C26.5992 29.6476 27.3646 29.6477 27.1707 30.4184C27.1285 30.5858 27.0552 30.684 26.9065 30.7673C26.454 30.7481 25.5383 30.6094 25.6797 29.9617C25.7091 29.8271 25.9599 29.635 26.0909 29.5817Z" fill="black" fill-opacity="0.980392"/>
<path d="M25.6908 37.3206C25.9645 37.3046 26.1678 37.2818 26.3045 37.5927C26.4358 37.891 26.2253 38.5627 25.9923 38.7657C25.881 38.7651 25.5731 38.7758 25.4944 38.7336C24.9987 38.4676 25.1575 37.8863 25.3832 37.4898C25.4499 37.3725 25.5734 37.3535 25.6908 37.3206Z" fill="black" fill-opacity="0.980392"/>
<path d="M8.03289 33.2412C8.61881 33.0526 9.0713 34.1644 7.83227 34.4847C7.43362 34.4576 7.00103 34.2688 7.24252 33.7807C7.42133 33.4193 7.68026 33.353 8.03289 33.2412Z" fill="black" fill-opacity="0.980392"/>
</svg>
