<svg width="52" height="44" viewBox="0 0 52 44" fill="none" xmlns="http://www.w3.org/2000/svg">
<path d="M13.6488 1.22951C15.6333 1.18033 17.7277 1.2526 19.7171 1.22618C21.2293 1.27571 22.7917 1.14613 24.2983 1.24291C28.1932 1.4931 31.1464 5.22108 30.9237 9.03827C33.5591 8.66636 36.2333 8.57862 38.8491 9.15108C39.5765 9.31031 40.694 9.71276 41.4103 9.95878C41.8592 10.113 42.7044 10.4866 43.1234 10.7045C45.8281 12.1117 48.1975 14.0522 50.1952 16.3756C50.5956 16.8795 51.1052 17.3527 51.3842 17.9391C51.8211 18.8585 50.7811 19.6593 50.2149 20.2442C47.9878 22.5453 45.3535 24.4108 42.4216 25.6526C42.0801 25.7972 41.667 25.9085 41.3112 26.0267C37.6731 27.2574 33.7504 27.3112 30.0814 26.1807C29.6975 26.0591 29.224 25.9227 28.8644 25.7684L27.8298 28.3166C27.6781 28.6904 27.5595 29.05 27.3936 29.4237C26.894 30.5029 26.4591 31.6262 25.9588 32.7196C26.1298 32.8244 26.2879 32.9495 26.4298 33.0924C27.4412 34.1019 27.3804 36.026 26.4354 37.0506C25.7085 37.8536 24.9414 38.0183 23.9034 37.9322C21.5342 37.7353 20.7588 34.6892 22.2825 33.0659C22.9722 32.3312 23.7878 32.1712 24.7798 32.1699C25.4725 30.4104 26.2343 28.6663 26.9339 26.9073C27.1497 26.3647 27.4698 25.75 27.6308 25.208C27.0027 24.9749 26.7155 24.7803 26.1291 24.4432C23.8537 23.1534 21.8676 21.3945 20.2976 19.2787C19.9895 18.8551 19.6896 18.399 19.3938 17.9656C19.2538 17.7605 19.0906 17.3034 18.9181 17.1578C18.7028 17.1912 17.9704 17.7678 17.7547 17.924L15.0688 19.849C14.6885 20.1221 14.2611 20.4813 13.8867 20.7106C13.4353 20.9871 12.7615 20.8146 12.7465 20.185C12.7352 19.7088 12.7343 19.2672 12.7385 18.8047L12.7477 16.4974C11.4867 16.2014 10.4447 15.6882 9.49919 14.7876C8.21625 13.5716 7.43759 11.8678 7.38064 10.0777C7.35289 9.20543 7.33471 8.20621 7.40887 7.33422C7.69175 4.00884 10.4014 1.44171 13.6488 1.22951ZM24.1464 33.5389C23.6175 33.6053 23.1592 33.9435 22.9325 34.4345C22.7058 34.9256 22.7425 35.5007 23.0297 35.9577C23.354 36.4738 23.9421 36.7523 24.5386 36.6723C25.3854 36.5587 25.9826 35.7694 25.8746 34.9067C25.7666 34.044 24.994 33.4326 24.1464 33.5389ZM20.6906 17.1406C21.1622 17.8652 21.4212 18.3273 21.9943 19.0242C24.0507 21.5183 26.7334 23.3971 29.7563 24.4602C30.2748 24.645 30.769 24.8344 31.3072 24.952C33.126 25.3494 34.976 25.5615 36.8307 25.3864C40.6668 25.1081 44.2405 23.4337 47.1877 20.9638C48.0466 20.2436 49.1932 19.244 49.819 18.3165C49.5713 18.0537 49.4234 17.8239 49.1913 17.5554C48.4411 16.6868 47.6194 15.8293 46.7802 15.0473C43.6617 12.1298 39.6153 10.4539 35.3823 10.3266C34.822 10.3153 34.1622 10.3136 33.6032 10.3336C32.8009 10.3918 32.0102 10.4468 31.216 10.5786C31.0996 10.598 30.98 10.614 30.8623 10.6205C30.8203 11.3787 30.7175 11.5328 30.5032 12.2285C30.0866 13.5805 29.4705 14.4758 28.4218 15.4319C27.3457 16.4131 25.964 16.8457 24.5616 17.1072C24.2581 17.1638 23.3712 17.1448 23.0221 17.1446L20.6906 17.1406ZM22.061 15.5666C24.4688 15.5554 25.8812 15.803 27.7688 13.905C28.3519 13.3186 29.1726 11.9328 29.2431 11.1499L29.2072 11.1069L29.1535 11.1283C28.6277 11.2377 28.0258 11.4846 27.5327 11.703C25.7868 12.4763 24.162 13.4793 22.7322 14.7656C22.5388 14.9397 22.1163 15.2784 21.9796 15.4796L21.9728 15.5539C22.0025 15.5601 22.0348 15.5713 22.061 15.5666ZM19.8472 15.5212C20.1729 15.1068 20.3445 14.9034 20.735 14.5576C21.0307 14.194 21.3481 13.9623 21.6948 13.6566C23.4892 12.0559 25.5536 10.7997 27.7881 9.94892C28.3489 9.73135 28.8556 9.63868 29.3789 9.45942C29.3908 8.13092 29.4337 7.46133 28.8635 6.19682C28.1832 4.68842 27.0084 3.56509 25.4589 3.00538C24.9139 2.8085 24.0019 2.77266 23.4223 2.76825L17.3971 2.76904C16.3391 2.76783 14.791 2.71654 13.7669 2.78359C13.2288 2.83781 12.6816 2.89806 12.1722 3.10613C11.971 3.1883 11.826 3.28371 11.643 3.38579C8.99465 4.86324 8.69696 7.24933 8.90037 10.0901C9.06628 12.4068 10.5523 14.3512 12.8022 14.9747C13.3593 15.1216 14.2651 15.0333 14.2592 15.7939C14.2526 16.6617 14.3528 17.7427 14.2414 18.5937C15.294 17.9073 16.3972 17.0399 17.4387 16.3103C18.6984 15.4277 18.3811 15.5548 19.8472 15.5212Z" fill="black"/>
<path d="M34.965 12.7979C37.7948 12.6226 40.229 14.8157 40.4026 17.6973C40.5758 20.579 38.4232 23.0585 35.5936 23.2366C32.762 23.4147 30.325 21.221 30.1514 18.3374C29.9777 15.4539 32.1332 12.9734 34.965 12.7979ZM35.5563 21.692C37.5482 21.5335 39.0344 19.7575 38.8724 17.7299C38.7104 15.7023 36.9616 14.1944 34.9709 14.3659C32.9892 14.5366 31.5166 16.3076 31.6779 18.3261C31.8392 20.3445 33.5736 21.8498 35.5563 21.692Z" fill="#E21F26"/>
<path d="M10.9306 25.3506C15.4154 25.0875 15.2968 31.5307 11.0442 31.2811C9.87454 31.2124 9.34914 30.5622 8.64703 29.7232C8.60948 29.7146 7.44764 30.1812 7.31075 30.2524C1.39908 33.3307 4.9807 36.8245 9.38963 38.486C10.802 39.0182 12.32 39.4988 13.8257 39.7829C14.3405 39.8804 14.9638 40.0947 15.4994 40.1751C19.2309 40.7361 23.0689 41.0536 26.8357 40.7224C28.9261 40.5874 31.029 40.3795 33.0603 39.8409C34.0406 39.5807 35.002 39.4885 35.9548 39.0705C36.295 38.9442 36.67 38.8418 37.0199 38.7421C37.8487 38.9598 37.9191 39.3668 37.4807 40.0901C37.0338 40.2855 36.394 40.3697 35.9316 40.5483C34.7413 41.0088 33.5754 41.2273 32.3248 41.467C27.357 42.4066 22.2754 42.5492 17.2643 41.89C16.6323 41.8039 16.0451 41.6616 15.4184 41.5546C14.4749 41.3802 13.5001 41.2546 12.5724 40.999C11.6798 40.7532 10.7686 40.4565 9.87775 40.1929C9.55103 40.0769 9.24309 39.9119 8.91836 39.7909C6.6298 38.9374 3.49735 37.2272 2.82814 34.64C2.00079 31.4416 5.81225 29.0203 8.37325 28.3636C8.39396 27.7166 8.50288 27.1576 8.88856 26.6243C9.37566 25.94 10.1106 25.4816 10.9306 25.3506ZM11.5264 29.9369C12.3931 29.8302 13.0135 29.0324 12.917 28.1489C12.8204 27.2654 12.0428 26.6261 11.1743 26.7161C10.2942 26.8074 9.65611 27.6121 9.75397 28.5075C9.85186 29.4028 10.6481 30.045 11.5264 29.9369Z" fill="black"/>
<path d="M40.3217 33.4398C41.9242 33.2171 43.3982 34.3661 43.6053 35.9996C43.812 37.6329 42.6729 39.1254 41.0675 39.3246C39.4784 39.5214 38.0309 38.3759 37.826 36.7592C37.6212 35.1425 38.7357 33.6603 40.3217 33.4398ZM39.6453 37.5384C39.9753 37.8601 40.4268 38.019 40.8816 37.9739C41.7014 37.8919 42.3194 37.1772 42.2948 36.3384C42.2825 35.9082 42.0996 35.5015 41.7882 35.2104C41.4772 34.9194 41.0634 34.7687 40.6417 34.7927C40.0185 34.828 39.4754 35.2366 39.259 35.8327C39.0426 36.4289 39.1942 37.0989 39.6453 37.5384Z" fill="#E21F26"/>
<path d="M29.531 35.5605L33.7017 35.5603C34.4034 35.5567 35.3314 35.5168 36.0081 35.5877C36.6947 35.6595 36.8981 36.9365 35.8806 37.0111L31.4528 37.0193C30.7831 37.0199 30.0907 37.0394 29.4242 37.0073C28.4437 36.96 28.364 36.0958 29.1392 35.5797L29.531 35.5605Z" fill="black"/>
</svg>
