<svg width="52" height="72" viewBox="0 0 52 72" fill="none" xmlns="http://www.w3.org/2000/svg">
<path d="M25.819 24.4067C26.5415 24.4678 28.4005 25.2507 29.2262 25.541L35.9693 27.8716L43.1615 30.2247C44.0838 30.5234 45.0233 30.8045 45.9475 31.0935C46.1237 31.1486 46.4634 31.44 46.4933 31.605C46.672 32.5867 46.5951 34.0988 46.5817 35.1202C46.562 36.6008 46.6192 38.1842 46.5505 39.6231C46.3629 43.5694 45.7058 47.4226 43.9222 50.972C41.1636 56.4602 36.1472 60.6351 30.9117 63.6707C29.4975 64.4909 27.7206 65.5719 26.19 66.1C24.7527 66.1445 19.5043 62.8366 18.1035 61.8765C12.4114 57.9271 7.72797 52.7695 6.15398 45.8502C5.14254 41.4038 5.44913 36.7684 5.40015 32.23C5.39233 31.503 5.80191 31.1512 6.45714 30.9335C7.86231 30.4663 9.29751 30.061 10.708 29.6002L19.2582 26.7282C20.7057 26.2251 22.1498 25.712 23.5903 25.1892C24.2227 24.9593 25.2088 24.5472 25.819 24.4067ZM26.0471 63.924C27.5951 63.0593 28.9798 62.4236 30.527 61.4622C36.5188 57.7401 41.5431 53.1824 43.496 46.1706C44.8515 41.3028 44.2905 37.5396 44.4864 32.7812C40.6862 31.7349 36.3348 30.1664 32.5797 28.8781C30.5537 28.1831 27.8982 27.3641 25.9441 26.612C23.8191 27.3698 21.6858 28.1042 19.5446 28.8149C15.5513 30.2125 11.5364 31.5475 7.5014 32.8194L7.50941 32.9086C7.63803 34.4219 7.52646 37.7876 7.54815 39.4974C7.64661 47.2732 10.4016 52.899 16.3869 57.9119C18.6412 59.7997 23.2313 62.8939 26.0471 63.924Z" fill="black"/>
<path d="M34.2386 38.0736L34.3123 38.0693C35.5657 37.9997 36.5061 38.8467 35.8642 40.186C35.7162 40.4949 34.7053 41.4554 34.4108 41.7557L31.6957 44.485L27.2786 48.8754C26.4927 49.6554 25.7014 50.4476 24.9067 51.2192C24.4806 51.6327 23.8702 51.573 23.3148 51.5467C22.962 51.3151 22.0218 50.3399 21.682 50.0005C20.685 48.995 19.6811 47.9964 18.6703 47.0049C18.066 46.3191 17.0885 45.6502 16.9099 44.7955C16.6912 43.7494 18.3889 42.8119 19.093 43.3686C20.721 44.656 22.4182 46.6903 24.0067 47.9544C26.1942 45.8564 28.3539 43.7296 30.4852 41.5746C31.3043 40.7622 33.3893 38.5426 34.2386 38.0736Z" fill="#E21F26"/>
<path d="M33.3238 21.6606C34.1455 21.6157 35.4563 22.1797 36.2811 22.4549C37.3628 22.8064 38.447 23.1499 39.5337 23.4856L48.1209 26.2015C48.8689 26.4358 51.6492 27.0102 51.8159 27.7692C52.0875 29.011 51.9768 30.849 51.9819 32.1534C52.0048 38.7247 52.2179 45.4945 49.5718 51.6677C46.1732 59.6526 39.0568 65.2956 31.63 69.355C30.1414 70.1688 28.5851 71.0011 27.0212 71.6723C25.9477 72.133 25.2663 71.9001 24.23 71.4305C22.7595 70.7644 21.3096 69.9608 19.8886 69.1864C12.8564 65.3529 5.14825 58.9578 2.21049 51.2709C1.36889 49.0989 0.769503 46.8407 0.423219 44.5372C-0.329842 39.4131 0.178835 33.6896 0.0498371 28.4812C0.0289735 27.6382 0.359291 27.2645 1.14447 27.0209C2.49227 26.6026 3.84866 26.1778 5.19869 25.7493L14.4495 22.808C15.3792 22.5229 17.3466 21.6141 18.2824 21.7439C19.0885 22.0477 19.1828 23.3371 18.3335 23.6626C13.0252 25.6971 7.48014 27.1283 2.10204 28.9242C2.21412 29.9455 2.20063 33.2558 2.17156 34.4389C1.98392 42.0879 2.26462 48.4238 6.6559 55.0803C10.4122 60.7743 16.3515 64.9177 22.2992 68.1124C23.1416 68.5648 25.2148 69.6426 26.0506 69.8227C27.0968 69.2685 28.3092 68.7474 29.3988 68.1703C33.3904 66.0573 36.9444 63.7896 40.2915 60.7756C46.8983 54.8257 49.5972 47.982 49.844 39.2126C49.9375 35.8886 49.7702 32.2466 49.9057 28.9377C49.1132 28.7216 48.0929 28.3629 47.2736 28.1128C44.6803 27.3421 42.1022 26.5216 39.5403 25.6519C38.5262 25.3156 33.203 23.7076 32.8042 23.1589C32.6737 22.9828 32.6223 22.7605 32.6621 22.545C32.7396 22.127 32.9941 21.8794 33.3238 21.6606Z" fill="black"/>
<path d="M25.5477 0.0324929C26.1203 -0.0637108 26.6518 0.0342749 26.9549 0.591073C27.3258 1.31101 27.6537 2.08739 27.9584 2.84079C28.393 3.91551 28.939 5.0153 29.3215 6.10402C31.162 6.42744 33.014 6.68735 34.8602 6.95439C35.5339 7.05181 36.3799 7.37783 36.1814 8.20542C36.121 8.45688 35.921 8.7871 35.7422 8.97601C34.9036 9.86201 33.9678 10.6623 33.0694 11.4867C32.6102 11.9001 32.0691 12.4313 31.5501 12.757C32.1127 14.5806 32.4489 16.7914 32.808 18.6876C32.9531 19.4537 32.2051 20.1488 31.3931 19.8209C30.6965 19.5396 30.0524 19.1584 29.377 18.7778C28.2784 18.1629 27.189 17.5318 26.1092 16.8846C26.037 16.8286 25.9361 16.7345 25.8403 16.791C24.4262 17.6868 23.0267 18.4785 21.5713 19.2911C19.6582 20.3593 18.6738 20.1306 19.231 17.676C19.59 16.0941 19.8852 14.369 20.2306 12.7485C19.285 11.9544 18.3529 11.0691 17.4234 10.2543C16.9075 9.80201 16.2741 9.24699 15.8389 8.74008C15.3176 8.10909 15.7607 7.10404 16.5445 7.02782C18.5151 6.83605 20.5208 6.32818 22.4768 6.17617C22.9157 4.8194 24.3681 1.77262 25.0851 0.391667C25.1595 0.248252 25.3989 0.111963 25.5477 0.0324929ZM18.6343 8.62612C19.3045 9.16466 22.4158 11.4736 22.3733 12.2251C22.2953 13.6032 21.7407 15.687 21.3839 17.0827C22.5193 16.4114 23.6378 15.7261 24.7963 15.0872C25.103 14.9181 25.586 14.3396 25.8529 14.2741L25.9845 14.3329C27.5152 15.4175 29.062 16.1204 30.4318 17.107C30.2639 16.4296 29.083 12.1473 29.535 11.7536C30.6267 10.8025 32.0502 9.41281 33.2503 8.62962C32.5839 8.67505 28.5004 8.23177 28.0077 7.88284C27.4922 7.51775 26.2114 3.66902 25.8882 3.36355C25.24 4.76919 24.7482 6.2753 24.0407 7.6478C23.8194 8.0769 23.1143 8.17488 22.6866 8.20192C21.3381 8.28731 19.9787 8.55454 18.6343 8.62612Z" fill="#E21F26"/>
<path d="M40.1157 11.437C40.7047 11.4366 43.9287 11.1399 43.993 12.1301C44.0413 12.8803 43.3912 13.0001 42.7456 13.0169C41.9783 13.0284 39.2239 13.3203 38.9329 12.3273C38.8746 12.1283 39.1867 11.6623 39.3905 11.5655C39.6354 11.449 39.8417 11.4464 40.1157 11.437Z" fill="#0EC8C5"/>
<path d="M8.45476 11.482C9.43013 11.3828 10.4413 11.4969 11.3819 11.4419C12.6037 11.3706 13.4765 12.3796 12.2233 12.9927C11.1789 13.0686 10.0357 13.0365 8.98589 13.0272C8.00111 13.0185 7.50394 12.0845 8.45476 11.482Z" fill="#0EC8C5"/>
<path d="M13.1161 16.1166C13.6369 16.1317 14.3572 16.424 14.0282 17.0235C13.5751 17.8491 11.9449 18.9643 11.0992 19.3027C9.89514 19.3295 9.88483 18.1988 10.6443 17.6663C11.3144 17.1965 12.3846 16.4226 13.1161 16.1166Z" fill="black"/>
<path d="M38.2894 16.1133C38.797 16.1121 43.1585 18.1668 41.1052 19.3213C40.3519 19.4081 39.207 18.3624 38.6014 17.9268C37.9664 17.4702 37.2588 16.6386 38.2894 16.1133Z" fill="black"/>
<path d="M41.1557 4.99031C41.7953 4.94405 42.2812 5.38009 42.0611 5.91888C41.7392 6.70607 39.7374 7.84684 39.0282 8.20766C38.5984 8.18444 37.8823 8.01608 38.1042 7.48614C38.4874 6.57105 40.3464 5.446 41.1557 4.99031Z" fill="black"/>
<path d="M10.2174 4.97726C10.9475 4.95957 11.7708 5.65158 12.3589 6.0726C13.0499 6.5673 14.3952 7.4365 13.1955 8.20155C12.4298 8.20639 11.699 7.50853 11.0528 7.12658C10.3132 6.68946 8.96827 5.74136 10.2174 4.97726Z" fill="black"/>
</svg>
